# xmcd CD database file
#
# Track frame offsets:
#	150
#	16795
#	32491
#	47862
#	69289
#	85057
#	100251
#	118589
#	140081
#	158324
#	171112
#	187568
#
# Disc length: 2735 seconds
#
# Revision: 0
# Processed by: cddbd v1.5.1PL0 Copyright (c) Steve Scherf et al.
# Submitted via: CDex 1.51
#
DISCID=850aad0c
DTITLE=Black Cat Blues Band - Time Won't Be Long
DYEAR=2004
DGENRE=Blues
TTITLE0=Future Blues
TTITLE1=3220 Blues
TTITLE2=Sittin' On the Dock of the Bay
TTITLE3=Hot Tamales
TTITLE4=How Long Blues
TTITLE5=Rolling Stone
TTITLE6=Pony Blues
TTITLE7=Things I Used To Do
TTITLE8=Angel Eyes
TTITLE9=Take the A-Train
TTITLE10=Boogie Boogie Boogie
TTITLE11=Goodnight Irene
EXTD=YEAR: 2004
EXTT0=
EXTT1=
EXTT2=
EXTT3=
EXTT4=
EXTT5=
EXTT6=
EXTT7=
EXTT8=
EXTT9=
EXTT10=
EXTT11=
PLAYORDER=
